# xmcd
#
# Track frame offsets:
#	150
#	12810
#	27150
#	38716
#	50036
#	61623
#	74943
#	87827
#	99944
#	114957
#	129138
#	142551
#	156130
#	170746
#	186806
#	201898
#	214671
#	225568
#	240527
#	252917
#
# Disc length: 3572 seconds
#
# Revision: 0
# Processed by: cddbd v1.5.2PL0 Copyright (c) Steve Scherf et al.
# Submitted via: dBpowerAMP V4.0
#
DISCID=020df214
DTITLE=divers arstistes - l'integrale blues - cd 6
DYEAR=2007
DGENRE=Blues
TTITLE0=Country Paul - sine i seen your smilling face- 1951
TTITLE1=Cecil Grant - rock little baby - 1951
TTITLE2=Dr Ross - country clown -1951
TTITLE3=Joe Hill Louis - gotta go baby - 1951
TTITLE4=Lil' Son ' Jackson - rockin' and rollin' - 1950
TTITLE5=Sonny Boy Williamson N°2 - Might long time - 1951
TTITLE6=Charley Booker - no riding blues - 1951
TTITLE7=Memphis Minnie - I never told a lie - 1930
TTITLE8=Lottie Kimbrough - rolling log blues - 1929
TTITLE9=Ma Rainer - leaving this morning - 1928
TTITLE10=Bessie Smith - The yellow dog blues - 1925
TTITLE11=Lucille Bogan - T and N O Blues 5 - 1933
TTITLE12=Nattie Hudson - Doggone my good luck soul - 1927
TTITLE13=Bessie Tucker - Penitatiary blues - 1928
TTITLE14=Victoria Spivey - Christmas morning blues - 1927
TTITLE15=Margaret Jonhson - When a gattor hollers - 1926
TTITLE16=Geogia White - territory blues - 1941
TTITLE17=Perline Ellison - Razor totin' mama - 1944
TTITLE18=Jane Lucas - Double trouble blues - 1930
TTITLE19=Bea Booze - These young man blues - 1944
EXTD=
EXTT0=
EXTT1=
EXTT2=
EXTT3=
EXTT4=
EXTT5=
EXTT6=
EXTT7=
EXTT8=
EXTT9=
EXTT10=
EXTT11=
EXTT12=
EXTT13=
EXTT14=
EXTT15=
EXTT16=
EXTT17=
EXTT18=
EXTT19=
PLAYORDER=
